<?xml version="1.0" encoding="UTF-8"?>
<!DOCTYPE svg PUBLIC "-//W3C//DTD SVG 1.1//EN" "http://www.w3.org/Graphics/SVG/1.1/DTD/svg11.dtd">
<svg xmlns="http://www.w3.org/2000/svg" version="1.1" width="159px" height="140px" style="shape-rendering:geometricPrecision; text-rendering:geometricPrecision; image-rendering:optimizeQuality; fill-rule:evenodd; clip-rule:evenodd" xmlns:xlink="http://www.w3.org/1999/xlink">
<g><path style="opacity:0.898" fill="#f6a812" d="M 77.5,-0.5 C 84.5,-0.5 91.5,-0.5 98.5,-0.5C 132.394,6.72728 152.394,27.3939 158.5,61.5C 158.5,66.8333 158.5,72.1667 158.5,77.5C 152.132,112.534 131.466,133.201 96.5,139.5C 90.8333,139.5 85.1667,139.5 79.5,139.5C 69.9838,137.609 60.6505,134.775 51.5,131C 48.6629,129.328 46.3296,127.161 44.5,124.5C 38.7111,129.053 33.3778,134.053 28.5,139.5C 25.1667,139.5 21.8333,139.5 18.5,139.5C 11.0599,133.399 4.72653,126.399 -0.5,118.5C -0.5,117.167 -0.5,115.833 -0.5,114.5C 0.409824,112.981 1.24316,111.315 2,109.5C 6.68193,104.985 11.1819,100.319 15.5,95.5C 12.1738,93.006 9.34046,90.006 7,86.5C 5.61652,77.7104 9.44986,73.3771 18.5,73.5C 18.9365,33.4058 38.6032,8.73917 77.5,-0.5 Z M 82.5,7.5 C 84.4461,12.3958 85.1128,17.7291 84.5,23.5C 79.456,23.8275 74.456,23.4941 69.5,22.5C 72.7941,16.5434 77.1275,11.5434 82.5,7.5 Z M 91.5,7.5 C 98.7892,10.1225 103.789,15.1225 106.5,22.5C 101.544,23.4941 96.544,23.8275 91.5,23.5C 91.5,18.1667 91.5,12.8333 91.5,7.5 Z M 67.5,10.5 C 65.5266,14.4469 63.5266,18.4469 61.5,22.5C 56.1977,23.6628 50.8643,23.8295 45.5,23C 51.9884,17.3446 59.3218,13.1779 67.5,10.5 Z M 108.5,10.5 C 116.84,12.8384 124.174,17.0051 130.5,23C 125.5,23.6667 120.5,23.6667 115.5,23C 113.281,18.7253 110.948,14.5586 108.5,10.5 Z M 38.5,30.5 C 45.175,30.3337 51.8417,30.5004 58.5,31C 56.2421,36.9492 54.7421,43.1159 54,49.5C 45.77,51.4516 37.27,52.1183 28.5,51.5C 30.4983,43.8377 33.8316,36.8377 38.5,30.5 Z M 66.5,30.5 C 72.5,30.5 78.5,30.5 84.5,30.5C 84.5,37.5 84.5,44.5 84.5,51.5C 76.8333,51.5 69.1667,51.5 61.5,51.5C 62.0715,44.2151 63.7382,37.2151 66.5,30.5 Z M 91.5,30.5 C 97.8682,30.1703 104.202,30.5037 110.5,31.5C 112.637,37.7161 114.304,44.0494 115.5,50.5C 107.528,51.4977 99.5277,51.831 91.5,51.5C 91.5,44.5 91.5,37.5 91.5,30.5 Z M 118.5,30.5 C 124.842,30.3338 131.175,30.5005 137.5,31C 142.465,36.9273 146.131,43.594 148.5,51C 139.84,51.4998 131.173,51.6664 122.5,51.5C 121.643,44.4067 120.31,37.4067 118.5,30.5 Z M 26.5,59.5 C 35.1667,59.5 43.8333,59.5 52.5,59.5C 52.5,62.1667 52.5,64.8333 52.5,67.5C 43.5497,69.1584 34.5497,70.4917 25.5,71.5C 25.2367,67.3998 25.5701,63.3998 26.5,59.5 Z M 60.5,65.5 C 60.5,63.5 60.5,61.5 60.5,59.5C 68.5,59.5 76.5,59.5 84.5,59.5C 84.5,66.5 84.5,73.5 84.5,80.5C 80.1667,80.5 75.8333,80.5 71.5,80.5C 74.3069,70.6497 70.6402,65.6497 60.5,65.5 Z M 91.5,59.5 C 99.8333,59.5 108.167,59.5 116.5,59.5C 116.795,66.2257 116.462,72.8923 115.5,79.5C 107.528,80.4977 99.5277,80.831 91.5,80.5C 91.5,73.5 91.5,66.5 91.5,59.5 Z M 123.5,59.5 C 132.5,59.5 141.5,59.5 150.5,59.5C 151.751,66.4955 151.751,73.4955 150.5,80.5C 141.5,80.5 132.5,80.5 123.5,80.5C 123.5,73.5 123.5,66.5 123.5,59.5 Z M 58.5,76.5 C 59.5,76.5 60.5,76.5 61.5,76.5C 59.1095,90.509 56.6095,104.509 54,118.5C 51.8333,116.333 49.6667,114.167 47.5,112C 45.1667,111.333 42.8333,111.333 40.5,112C 34.6667,117.833 28.8333,123.667 23,129.5C 18.6513,125.318 14.4846,120.985 10.5,116.5C 16.1518,110.348 21.9851,104.348 28,98.5C 28.7063,96.0288 28.373,93.6954 27,91.5C 24.5,89 22,86.5 19.5,84C 32.6328,81.4812 45.6328,78.9812 58.5,76.5 Z M 70.5,87.5 C 75.1667,87.5 79.8333,87.5 84.5,87.5C 84.5,94.8333 84.5,102.167 84.5,109.5C 78.5,109.5 72.5,109.5 66.5,109.5C 67.6225,102.095 68.9558,94.762 70.5,87.5 Z M 91.5,87.5 C 99.1667,87.5 106.833,87.5 114.5,87.5C 114.168,94.9937 112.501,102.16 109.5,109C 103.509,109.499 97.5092,109.666 91.5,109.5C 91.5,102.167 91.5,94.8333 91.5,87.5 Z M 122.5,87.5 C 131.173,87.3336 139.84,87.5002 148.5,88C 145.765,95.7322 141.765,102.732 136.5,109C 130.141,109.831 123.807,109.664 117.5,108.5C 119.955,101.681 121.621,94.681 122.5,87.5 Z M 69.5,117.5 C 74.3054,116.513 79.3054,116.179 84.5,116.5C 84.8275,121.544 84.4941,126.544 83.5,131.5C 77.7847,127.785 73.1181,123.118 69.5,117.5 Z M 91.5,116.5 C 96.5111,116.334 101.511,116.501 106.5,117C 103.024,122.976 98.3572,127.81 92.5,131.5C 91.5059,126.544 91.1725,121.544 91.5,116.5 Z M 114.5,116.5 C 119.511,116.334 124.511,116.501 129.5,117C 123.458,121.865 116.792,125.698 109.5,128.5C 109.167,128.167 108.833,127.833 108.5,127.5C 111.287,124.259 113.287,120.593 114.5,116.5 Z M 63.5,123.5 C 65.2501,124.742 66.9168,126.242 68.5,128C 64.8336,128.823 63.1669,127.323 63.5,123.5 Z"/></g>
</svg>
