<?xml version="1.0" encoding="UTF-8"?>
<!DOCTYPE svg PUBLIC "-//W3C//DTD SVG 1.1//EN" "http://www.w3.org/Graphics/SVG/1.1/DTD/svg11.dtd">
<svg xmlns="http://www.w3.org/2000/svg" version="1.1" width="130px" height="146px" style="shape-rendering:geometricPrecision; text-rendering:geometricPrecision; image-rendering:optimizeQuality; fill-rule:evenodd; clip-rule:evenodd" xmlns:xlink="http://www.w3.org/1999/xlink">
<g><path style="opacity:0.937" fill="#000000" d="M 22.5,-0.5 C 50.1667,-0.5 77.8333,-0.5 105.5,-0.5C 106.688,0.363622 107.855,1.36362 109,2.5C 109.5,27.8311 109.667,53.1645 109.5,78.5C 115.176,78.3339 120.843,78.5006 126.5,79C 127.691,79.6979 128.691,80.5313 129.5,81.5C 129.5,83.8333 129.5,86.1667 129.5,88.5C 108.807,107.528 88.1407,126.528 67.5,145.5C 65.5,145.5 63.5,145.5 61.5,145.5C 41.1348,125.8 20.4681,106.467 -0.5,87.5C -0.5,85.5 -0.5,83.5 -0.5,81.5C 0.626561,80.8783 1.62656,80.045 2.5,79C 7.82294,78.5006 13.1563,78.334 18.5,78.5C 18.3334,53.4978 18.5,28.4978 19,3.5C 19.6897,1.64977 20.8564,0.316435 22.5,-0.5 Z M 30.5,11.5 C 52.8333,11.5 75.1667,11.5 97.5,11.5C 97.3334,36.8355 97.5,62.1689 98,87.5C 98.5,88.6667 99.3333,89.5 100.5,90C 102.833,90.3333 105.167,90.6667 107.5,91C 93.6167,104.719 79.2834,117.886 64.5,130.5C 50.3167,117.149 35.9833,103.983 21.5,91C 23.5,90.6667 25.5,90.3333 27.5,90C 28.6667,89.5 29.5,88.6667 30,87.5C 30.5,62.1689 30.6666,36.8355 30.5,11.5 Z"/></g>
<g><path style="opacity:0.926" fill="#000000" d="M 61.5,26.5 C 65.3491,26.0193 67.3491,27.686 67.5,31.5C 71.6225,31.7978 75.6225,32.6311 79.5,34C 81.7289,36.553 82.0623,39.3864 80.5,42.5C 78.808,43.9686 76.808,44.6353 74.5,44.5C 70.0882,43.0946 65.7549,43.2612 61.5,45C 57.5,47.6667 57.5,50.3333 61.5,53C 69.0294,55.6791 75.8627,59.5125 82,64.5C 88.3458,79.1444 83.8458,88.8111 68.5,93.5C 67.568,100.844 64.4013,102.177 59,97.5C 58.51,96.2068 58.3433,94.8734 58.5,93.5C 54.2982,93.6161 50.2982,92.7827 46.5,91C 42.7615,84.7869 44.4282,81.2869 51.5,80.5C 56.4826,81.4231 61.4826,81.5898 66.5,81C 71.3292,78.1625 71.6625,74.8292 67.5,71C 61.5424,68.9054 55.8757,66.2388 50.5,63C 43.9574,56.402 42.7908,48.902 47,40.5C 49.7076,36.8957 53.2076,34.3957 57.5,33C 58.2341,30.4393 59.5675,28.2726 61.5,26.5 Z"/></g>
</svg>
