<?xml version="1.0" encoding="UTF-8"?>
<!DOCTYPE svg PUBLIC "-//W3C//DTD SVG 1.1//EN" "http://www.w3.org/Graphics/SVG/1.1/DTD/svg11.dtd">
<svg xmlns="http://www.w3.org/2000/svg" version="1.1" width="133px" height="145px" style="shape-rendering:geometricPrecision; text-rendering:geometricPrecision; image-rendering:optimizeQuality; fill-rule:evenodd; clip-rule:evenodd" xmlns:xlink="http://www.w3.org/1999/xlink">
<g><path style="opacity:0.92" fill="#f6a812" d="M 60.5,-0.5 C 62.8333,-0.5 65.1667,-0.5 67.5,-0.5C 72.711,5.4513 79.0444,9.9513 86.5,13C 94.0324,15.6332 101.699,17.7998 109.5,19.5C 106.015,22.484 102.682,25.6507 99.5,29C 86.2648,27.6969 74.4315,22.8636 64,14.5C 48.9869,25.3396 32.1536,31.3396 13.5,32.5C 8.30353,64.2383 16.6369,91.7383 38.5,115C 46.2338,121.621 54.7338,127.121 64,131.5C 91.6884,118.799 108.688,97.4656 115,67.5C 119.133,64.3689 122.966,60.8689 126.5,57C 126.977,86.4045 115.311,110.738 91.5,130C 83.4312,135.365 75.0978,140.198 66.5,144.5C 64.8333,144.5 63.1667,144.5 61.5,144.5C 24.4811,128.141 3.8144,99.8074 -0.5,59.5C -0.5,51.1667 -0.5,42.8333 -0.5,34.5C 0.252779,29.603 1.58611,24.7696 3.5,20C 19.7008,20.0259 35.0342,16.3593 49.5,9C 53.6118,6.28825 57.2784,3.12158 60.5,-0.5 Z"/></g>
<g><path style="opacity:0.942" fill="#f6a812" d="M 132.5,34.5 C 132.5,35.8333 132.5,37.1667 132.5,38.5C 110.037,58.4596 87.704,78.6263 65.5,99C 63.8333,99.6667 62.1667,99.6667 60.5,99C 51.1667,91 41.8333,83 32.5,75C 29.5681,72.5767 27.2347,69.7434 25.5,66.5C 25.7189,65.062 26.2189,63.7287 27,62.5C 29.7953,60.7068 32.2953,58.5402 34.5,56C 36.5,55.3333 38.5,55.3333 40.5,56C 48.0112,62.1803 55.5112,68.3469 63,74.5C 81.155,58.3464 99.3217,42.1797 117.5,26C 119.365,24.6986 121.365,24.3653 123.5,25C 126.732,28.0623 129.732,31.229 132.5,34.5 Z"/></g>
</svg>
