<?xml version="1.0" encoding="UTF-8"?><svg id="Capa_2" xmlns="http://www.w3.org/2000/svg" width="1408.23" height="1408.23" viewBox="0 0 1408.23 1408.23"><defs><style>.cls-1{fill:#f7c92b;}.cls-2{fill:#f7e249;}.cls-3{fill:#f2b51d;}.cls-4{fill:#f20018;}</style></defs><g id="Capa_2-2"><circle class="cls-4" cx="704.12" cy="704.12" r="704.12"/><g><circle class="cls-3" cx="704.12" cy="1026.75" r="104.28"/><circle class="cls-1" cx="704.12" cy="351.62" r="61.43"/><path class="cls-2" d="m1011.96,864.85h.02s-82.94-49.48-70.58-197.34c.98-6.5,1.69-13.09,2.14-19.75.01-.08.02-.16.03-.24h-.01c.35-5.3.55-10.64.55-16.03,0-131.67-106.74-238.41-238.41-238.41s-238.41,106.74-238.41,238.41c0,5.39.2,10.73.55,16.03h-.02c.01.09.02.18.03.27.44,6.5,1.13,12.94,2.08,19.29,12.26,148.19-74.5,197.76-74.5,197.76l.22.39c-22.13,14.62-36.75,39.7-36.75,68.21h0c0,45.12,36.58,81.7,81.7,81.7h526.98c45.12,0,81.7-36.58,81.7-81.7h0c0-28.77-14.88-54.04-37.35-68.6Z"/><path class="cls-1" d="m1011.96,864.85h.02s-82.94-49.48-70.58-197.34c.98-6.5,1.69-13.09,2.14-19.75.01-.08.02-.16.03-.24h-.01c.35-5.3.55-10.64.55-16.03,0-131.67-106.74-238.41-238.41-238.41-21.8,0-42.92,2.94-62.99,8.43,2.56.58,165.78,38,165.67,213.3-.11,176.68,12.15,194.04,67.29,236.94s58.21,145.02-25.53,158.3l-12.77,5.11h130.21c45.12,0,81.7-36.58,81.7-81.7h0c0-28.77-14.88-54.04-37.35-68.6Z"/></g></g></svg>