<?xml version="1.0" encoding="UTF-8"?>
<!DOCTYPE svg PUBLIC "-//W3C//DTD SVG 1.1//EN" "http://www.w3.org/Graphics/SVG/1.1/DTD/svg11.dtd">
<svg xmlns="http://www.w3.org/2000/svg" version="1.1" width="125px" height="125px" style="shape-rendering:geometricPrecision; text-rendering:geometricPrecision; image-rendering:optimizeQuality; fill-rule:evenodd; clip-rule:evenodd" xmlns:xlink="http://www.w3.org/1999/xlink">
<g><path style="opacity:0.813" fill="#000000" d="M 52.5,1.5 C 58.8421,1.33379 65.1754,1.50046 71.5,2C 76.7308,6.59283 78.8975,12.4262 78,19.5C 82.6351,21.6521 86.9684,24.3188 91,27.5C 96.9596,23.9534 103.293,22.9534 110,24.5C 114.292,29.2506 117.125,34.7506 118.5,41C 118.518,43.3894 117.851,45.556 116.5,47.5C 113.681,50.075 110.681,52.4083 107.5,54.5C 106.167,59.8333 106.167,65.1667 107.5,70.5C 119.198,76.7878 121.198,85.2878 113.5,96C 110.777,100.695 106.777,102.695 101.5,102C 98.0821,100.305 94.5821,98.8052 91,97.5C 87.0918,100.206 82.9251,102.54 78.5,104.5C 77.4813,109.43 76.148,114.264 74.5,119C 73.1793,121.329 71.1793,122.662 68.5,123C 52.6085,126.936 44.9419,120.769 45.5,104.5C 41.5036,102.837 37.8369,100.671 34.5,98C 32.8333,97.3333 31.1667,97.3333 29.5,98C 20.8594,103.964 14.0261,102.464 9,93.5C 5.50222,88.5146 4.83555,83.1813 7,77.5C 10.3132,75.0213 13.4798,72.3546 16.5,69.5C 17.6623,64.533 17.8289,59.533 17,54.5C 2.25157,44.5081 2.08491,34.0081 16.5,23C 17.6667,22.8333 18.8333,22.6667 20,22.5C 24.3859,23.6284 28.7193,24.9617 33,26.5C 37.1057,24.1973 41.2724,22.0306 45.5,20C 46.4896,16.2405 47.323,12.4072 48,8.5C 48.8399,5.65866 50.3399,3.32533 52.5,1.5 Z M 56.5,9.5 C 60.226,9.17744 63.8927,9.51078 67.5,10.5C 68.878,15.3947 69.7113,20.3947 70,25.5C 74.0567,27.7791 78.2233,29.9458 82.5,32C 85.4277,36.2161 89.4277,37.5494 94.5,36C 97.5693,34.2759 100.736,32.7759 104,31.5C 106.561,34.3946 108.727,37.5613 110.5,41C 106.193,43.6467 102.193,46.6467 98.5,50C 97.9032,51.0617 97.5698,52.2284 97.5,53.5C 98.2481,60.5293 98.5815,67.5293 98.5,74.5C 102.356,77.5998 106.023,80.9331 109.5,84.5C 107.756,87.5845 105.922,90.5845 104,93.5C 99.8962,91.6814 95.7295,89.8481 91.5,88C 87.8078,87.8038 84.8078,89.3038 82.5,92.5C 78.1865,94.3438 74.0199,96.3438 70,98.5C 68.8714,103.809 67.8714,109.143 67,114.5C 63.5447,115.791 60.0447,115.791 56.5,114.5C 55.122,109.605 54.2887,104.605 54,99.5C 53.6924,98.6919 53.1924,98.0253 52.5,97.5C 45.7459,95.0432 39.5792,91.7099 34,87.5C 29.0379,89.822 23.8713,91.322 18.5,92C 17.1839,89.3432 15.8506,86.6765 14.5,84C 17.9702,80.2007 21.8035,76.7007 26,73.5C 26.1667,72.5 26.3333,71.5 26.5,70.5C 25.7519,63.4707 25.4185,56.4707 25.5,49.5C 21.5181,46.8482 17.8514,43.8482 14.5,40.5C 15.9395,37.0071 17.9395,34.0071 20.5,31.5C 25.1819,33.1767 29.8486,34.8434 34.5,36.5C 40.1674,32.3328 46.5008,29.1661 53.5,27C 55.0737,21.2943 56.0737,15.461 56.5,9.5 Z"/></g>
<g><path style="opacity:0.883" fill="#000000" d="M 59.5,31.5 C 61.4672,31.2606 63.3005,31.5939 65,32.5C 68.5814,37.328 71.9148,42.328 75,47.5C 75.9558,51.9252 74.1225,53.5918 69.5,52.5C 69.5,65.8333 69.5,79.1667 69.5,92.5C 64.8333,92.5 60.1667,92.5 55.5,92.5C 55.5,79.1667 55.5,65.8333 55.5,52.5C 53.5,52.5 51.5,52.5 49.5,52.5C 49.3379,50.4727 49.5045,48.4727 50,46.5C 53.1882,41.4437 56.3548,36.4437 59.5,31.5 Z"/></g>
<g><path style="opacity:0.79" fill="#000000" d="M 39.5,52.5 C 41.3084,52.4914 42.9751,52.9914 44.5,54C 45.9596,57.0887 47.793,59.9221 50,62.5C 51.2381,65.9257 50.0714,67.5923 46.5,67.5C 46.5,72.8333 46.5,78.1667 46.5,83.5C 43.2234,83.7839 40.0567,83.4505 37,82.5C 36.5007,77.5111 36.3341,72.5111 36.5,67.5C 34.0523,67.9153 32.7189,66.9153 32.5,64.5C 34.8291,60.5101 37.1624,56.5101 39.5,52.5 Z"/></g>
<g><path style="opacity:0.821" fill="#000000" d="M 80.5,52.5 C 81.8734,52.3433 83.2068,52.51 84.5,53C 86.5431,56.2534 88.7098,59.4201 91,62.5C 92.2381,65.9257 91.0714,67.5923 87.5,67.5C 87.5,72.8333 87.5,78.1667 87.5,83.5C 84.5,83.5 81.5,83.5 78.5,83.5C 78.5,78.1667 78.5,72.8333 78.5,67.5C 75.7395,68.0853 74.0728,67.0853 73.5,64.5C 75.8291,60.5101 78.1624,56.5101 80.5,52.5 Z"/></g>
</svg>
